<svg width="33" height="56" viewBox="0 0 33 56" fill="none" xmlns="http://www.w3.org/2000/svg">
<path fill-rule="evenodd" clip-rule="evenodd" d="M16.5 0.892857C25.6127 0.892857 33 8.41208 33 17.6875V38.3125C33 47.5879 25.6127 55.1071 16.5 55.1071C7.3873 55.1071 0 47.5879 0 38.3125V17.6875C0 8.41207 7.3873 0.892857 16.5 0.892857ZM28.3684 17.6875C28.3684 11.0157 23.0547 5.60714 16.5 5.60714C9.94525 5.60714 4.63158 11.0157 4.63158 17.6875V38.3125C4.63158 44.9843 9.94525 50.3929 16.5 50.3929C23.0547 50.3929 28.3684 44.9843 28.3684 38.3125V17.6875ZM16.7895 17.9821C14.5513 17.9821 12.7368 16.1353 12.7368 13.8571C12.7368 11.579 14.5513 9.73214 16.7895 9.73214C19.0277 9.73214 20.8421 11.579 20.8421 13.8571C20.8421 16.1353 19.0277 17.9821 16.7895 17.9821Z" fill="white"/>
</svg>
