<svg width="597" height="660" viewBox="0 0 597 660" fill="none" xmlns="http://www.w3.org/2000/svg">
<path d="M453.474 834.442C449.94 804.843 430.686 740.18 428.395 699.751C439.276 697.805 421.52 580.717 432.427 579.04C463.242 574.303 494.274 556.649 525.114 553.628C536.956 614.822 529.813 670.383 540.31 742.062C548.337 796.867 563.469 864.168 575.363 953.399C583.735 1016.21 605.038 1155.19 593.798 1169.28C582.545 1183.4 561.191 1215.11 547.121 1210.91C544.83 1210.23 526.305 1229.8 511.659 1227.07C509.829 1226.72 493.532 1230.68 489.845 1228.48C486.158 1226.28 478.988 1220.87 493.007 1208.66C507.025 1196.45 527.175 1181.48 526.139 1174.43C525.102 1167.37 520.518 1132.18 516.665 1130.96C512.824 1129.75 491.163 1184.48 480.153 1183.87C469.156 1183.27 470.078 1180.69 473.868 1170.29C475.609 1165.49 479.526 1103.95 483.917 1095.21C488.308 1086.46 510.328 1061.72 507.345 1048.57C504.349 1035.41 459.593 885.714 453.474 834.442Z" fill="#FF9677"/>
<path d="M233.981 280.495C238.59 259.692 266.729 241.5 298.517 242.55C330.304 243.599 349.866 259.308 345.244 280.111L334.043 375.077C329.434 395.88 296.673 397.506 264.886 396.456C233.098 395.407 208.006 390.67 212.628 369.866L233.981 280.495Z" fill="#FF8568"/>
<path d="M390.295 375.768L385.123 449.956H164.646L170.342 368.369C237.822 348.833 328.154 348.999 390.295 375.768Z" fill="#FF7F66"/>
<path d="M157.975 370.404C158.308 370.315 158.641 370.238 158.974 370.148C159.473 370.033 159.96 369.905 160.459 369.79C161.522 369.546 162.597 369.303 163.685 369.073C163.916 369.009 164.172 368.932 164.453 368.855C170.061 367.293 175.834 365.757 181.787 364.221C181.787 364.246 181.787 364.259 181.8 364.285C190.403 362.044 199.505 362.377 202.77 361.532C206.047 422.496 249.6 447.076 282.642 448.561C354.552 451.787 359.275 387.162 353.463 363.414C465.251 380.287 512.056 441.149 538.287 571.551C501.212 587.694 479.73 593.519 441.414 596.873C441.414 617.177 436.421 806.648 445.498 1037.32C445.498 1037.32 371.373 1050.5 252.813 1050.96C118.148 1051.49 45.5731 1030.94 45.5731 1030.94C40.5674 794.358 52.0253 565.662 73.328 487.838C76.5541 476.073 79.1145 390.286 157.975 370.404Z" fill="#FFDBC3"/>
<path d="M192.413 361.558C192.413 361.558 163.224 477.378 146.07 550.414C145.237 553.935 141.55 550.274 140.757 553.666C134.496 580.282 132.691 580.615 129.977 591.701C114 596.796 60.4108 625.422 12.1341 605.374C12.1341 605.374 5.9763 579.219 3.72313 566.788C-27.6676 382.118 148.502 362.685 192.413 361.558Z" fill="#FFDBC3"/>
<path d="M206.854 360.086C207.084 368.612 209.286 399.324 231.255 421.805C244.825 435.695 263.657 442.915 287.213 442.915H287.443C310.871 442.915 328.103 436.168 338.677 423.072C355.896 401.769 351.338 368.893 350.109 361.852C355.025 362.672 360.057 363.235 365.075 363.401C366.867 376.626 368.813 408.849 350.045 432.136C336.577 448.855 315.505 457.458 287.443 457.458H287.174C259.56 457.458 237.246 448.766 220.847 431.982C196.907 407.479 189.84 374.629 189.187 361.545C194.589 357.768 203.18 357.564 206.854 360.086Z" fill="#FFEADD"/>
<path d="M258.6 277.179C258.612 277.115 258.625 277.077 258.625 277.077C258.625 277.077 258.612 277.128 258.6 277.179Z" fill="#7C302A"/>
<path d="M258.139 275.566C258.152 275.502 258.165 275.464 258.165 275.464C258.165 275.464 258.152 275.502 258.139 275.566Z" fill="#7C302A"/>
<path d="M260.866 296.433C260.878 296.369 260.891 296.331 260.891 296.331C260.891 296.331 260.878 296.369 260.866 296.433Z" fill="#7C302A"/>
<path d="M445.901 269.054C452.464 249.196 446.78 229.461 433.205 224.975C419.631 220.489 403.306 232.95 396.744 252.808C390.181 272.666 395.865 292.401 409.439 296.887C423.013 301.374 439.338 288.912 445.901 269.054Z" fill="#FF8568"/>
<path d="M367.674 51.248C367.674 51.248 367.699 51.0175 367.776 50.6463C367.712 51.0303 367.674 51.248 367.674 51.248Z" fill="#3E1208"/>
<path d="M188.201 242.678C190.314 194.043 203.705 135.435 215.303 99.6911C225.161 52.9635 359.045 36.8968 395.173 103.391C406.247 133.962 420.508 188.307 424.669 244.214C424.694 243.612 424.694 243.267 424.694 243.267C424.694 243.267 453.973 392.821 321.983 395.88C189.981 398.94 178.574 328.874 188.201 242.678Z" fill="#FF9877"/>
<g opacity="0.45">
<path opacity="0.45" d="M396.963 310.925C420.094 298.856 428.139 268.552 414.932 243.24C401.725 217.927 372.266 207.191 349.135 219.26C326.004 231.329 317.959 261.633 331.166 286.946C344.374 312.258 373.832 322.994 396.963 310.925Z" fill="#FF9877"/>
<path opacity="0.45" d="M396.762 310.54C419.699 298.572 427.676 268.523 414.58 243.424C401.484 218.324 372.273 207.679 349.337 219.646C326.4 231.614 318.422 261.663 331.518 286.763C344.614 311.862 373.825 322.507 396.762 310.54Z" fill="#FF9776"/>
<path opacity="0.45" d="M396.56 310.154C419.297 298.291 427.202 268.5 414.217 243.613C401.232 218.727 372.274 208.169 349.538 220.033C326.801 231.896 318.896 261.687 331.881 286.573C344.866 311.46 373.824 322.017 396.56 310.154Z" fill="#FF9676"/>
<path opacity="0.45" d="M396.353 309.757C418.895 297.996 426.735 268.464 413.865 243.797C400.994 219.13 372.287 208.668 349.745 220.43C327.203 232.192 319.363 261.723 332.233 286.39C345.104 311.057 373.811 321.519 396.353 309.757Z" fill="#FF9575"/>
<path opacity="0.45" d="M396.152 309.372C418.499 297.711 426.272 268.435 413.513 243.981C400.754 219.527 372.294 209.156 349.946 220.816C327.599 232.477 319.826 261.753 332.585 286.207C345.344 310.661 373.804 321.032 396.152 309.372Z" fill="#FF9475"/>
<path opacity="0.45" d="M395.95 308.986C418.103 297.427 425.809 268.406 413.161 244.165C400.513 219.924 372.301 209.644 350.147 221.203C327.994 232.762 320.288 261.783 332.936 286.024C345.585 310.264 373.797 320.545 395.95 308.986Z" fill="#FF9374"/>
<path opacity="0.45" d="M395.749 308.601C417.702 297.146 425.335 268.383 412.798 244.355C400.261 220.327 372.302 210.135 350.349 221.589C328.396 233.043 320.763 261.807 333.3 285.835C345.837 309.862 373.796 320.055 395.749 308.601Z" fill="#FF9274"/>
<path opacity="0.45" d="M395.542 308.204C417.3 296.851 424.868 268.347 412.446 244.539C400.024 220.731 372.315 210.634 350.556 221.986C328.798 233.339 321.229 261.843 333.652 285.651C346.074 309.459 373.783 319.556 395.542 308.204Z" fill="#FF9173"/>
<path opacity="0.45" d="M395.34 307.818C416.904 296.567 424.405 268.318 412.094 244.723C399.783 221.128 372.322 211.121 350.758 222.373C329.194 233.624 321.693 261.873 334.004 285.468C346.315 309.063 373.776 319.07 395.34 307.818Z" fill="#FF9072"/>
<path opacity="0.45" d="M395.139 307.433C416.509 296.283 423.942 268.289 411.742 244.907C399.542 221.525 372.329 211.609 350.959 222.759C329.589 233.909 322.156 261.903 334.356 285.285C346.556 308.667 373.769 318.583 395.139 307.433Z" fill="#FF8F72"/>
<path opacity="0.45" d="M394.937 307.047C416.107 296.002 423.468 268.266 411.379 245.097C399.29 221.928 372.329 212.1 351.16 223.145C329.991 234.191 322.63 261.927 334.719 285.096C346.807 308.264 373.768 318.092 394.937 307.047Z" fill="#FF8E71"/>
<path opacity="0.45" d="M394.736 306.662C415.711 295.718 423.005 268.236 411.027 245.281C399.049 222.325 372.336 212.588 351.362 223.532C330.387 234.476 323.093 261.957 335.071 284.912C347.048 307.868 373.761 317.606 394.736 306.662Z" fill="#FF8D71"/>
<path opacity="0.45" d="M394.529 306.265C415.309 295.422 422.538 268.201 410.675 245.465C398.812 222.729 372.349 213.087 351.569 223.929C330.788 234.772 323.559 261.993 335.422 284.729C347.285 307.466 373.748 317.107 394.529 306.265Z" fill="#FF8C70"/>
<path opacity="0.45" d="M394.284 305.844C414.862 295.106 422.016 268.144 410.264 245.624C398.512 223.103 372.304 213.552 351.727 224.289C331.149 235.027 323.995 261.989 335.746 284.509C347.498 307.03 373.706 316.582 394.284 305.844Z" fill="#FF8B70"/>
<path opacity="0.45" d="M394.082 305.458C414.465 294.822 421.553 268.115 409.912 245.808C398.271 223.5 372.311 214.039 351.928 224.676C331.544 235.312 324.457 262.019 336.098 284.326C347.738 306.634 373.699 316.095 394.082 305.458Z" fill="#FF8A6F"/>
<path opacity="0.45" d="M393.881 305.073C414.07 294.538 421.09 268.086 409.56 245.992C398.031 223.897 372.318 214.527 352.129 225.062C331.94 235.597 324.92 262.049 336.45 284.143C347.979 306.237 373.692 315.608 393.881 305.073Z" fill="#FF896E"/>
<path opacity="0.45" d="M393.674 304.676C413.669 294.242 420.624 268.051 409.209 246.176C397.794 224.301 372.331 215.026 352.337 225.46C332.342 235.893 325.387 262.085 336.802 283.96C348.217 305.835 373.679 315.11 393.674 304.676Z" fill="#FF886E"/>
<path opacity="0.45" d="M393.473 304.291C413.267 293.962 420.149 268.028 408.846 246.366C397.542 224.704 372.332 215.517 352.538 225.846C332.744 236.175 325.861 262.109 337.165 283.771C348.469 305.433 373.679 314.62 393.473 304.291Z" fill="#FF876D"/>
<path opacity="0.45" d="M393.271 303.905C412.871 293.678 419.686 267.999 408.493 246.55C397.301 225.101 372.339 216.005 352.739 226.232C333.139 236.46 326.324 262.139 337.516 283.588C348.709 305.036 373.671 314.133 393.271 303.905Z" fill="#FF866D"/>
<path opacity="0.45" d="M393.07 303.52C412.475 293.394 419.223 267.97 408.142 246.734C397.06 225.498 372.346 216.492 352.94 226.619C333.535 236.745 326.787 262.169 337.868 283.405C348.95 304.64 373.664 313.646 393.07 303.52Z" fill="#FF856C"/>
<path opacity="0.45" d="M392.868 303.134C412.079 293.11 418.76 267.941 407.79 246.918C396.82 225.895 372.353 216.98 353.142 227.005C333.931 237.03 327.25 262.199 338.22 283.221C349.19 304.244 373.657 313.159 392.868 303.134Z" fill="#FF846B"/>
<path opacity="0.45" d="M392.661 302.738C411.671 292.817 418.282 267.911 407.427 247.108C396.571 226.305 372.359 217.482 353.349 227.403C334.338 237.323 327.728 262.229 338.583 283.032C349.439 303.836 373.65 312.658 392.661 302.738Z" fill="#FF836B"/>
<path opacity="0.45" d="M392.459 302.352C411.275 292.534 417.819 267.882 407.074 247.292C396.33 226.702 372.366 217.97 353.55 227.789C334.734 237.608 328.19 262.259 338.935 282.849C349.679 303.439 373.643 312.171 392.459 302.352Z" fill="#FF826A"/>
<path opacity="0.45" d="M392.258 301.967C410.88 292.25 417.356 267.853 406.722 247.476C396.089 227.099 372.373 218.458 353.751 228.175C335.129 237.893 328.653 262.289 339.286 282.666C349.92 303.043 373.636 311.684 392.258 301.967Z" fill="#FF816A"/>
<path opacity="0.45" d="M392.056 301.582C410.478 291.969 416.881 267.83 406.359 247.666C395.837 227.502 372.374 218.949 353.953 228.562C335.531 238.175 329.127 262.313 339.65 282.477C350.172 302.641 373.635 311.194 392.056 301.582Z" fill="#FF8069"/>
<path opacity="0.45" d="M391.849 301.185C410.076 291.674 416.415 267.795 406.007 247.85C395.6 227.906 372.387 219.448 354.16 228.96C335.933 238.471 329.594 262.35 340.001 282.294C350.409 302.239 373.622 310.696 391.849 301.185Z" fill="#FF7F69"/>
<path opacity="0.45" d="M391.648 300.8C409.68 291.39 415.952 267.766 405.656 248.034C395.359 228.303 372.394 219.936 354.361 229.346C336.328 238.756 330.057 262.38 340.353 282.111C350.65 301.842 373.615 310.21 391.648 300.8Z" fill="#FF7E68"/>
<path opacity="0.45" d="M391.446 300.414C409.285 291.106 415.489 267.737 405.304 248.219C395.119 228.7 372.401 220.424 354.563 229.732C336.724 239.041 330.52 262.41 340.705 281.928C350.89 301.446 373.608 309.723 391.446 300.414Z" fill="#FF7D67"/>
<path opacity="0.45" d="M391.245 300.029C408.883 290.825 415.015 267.714 404.941 248.409C394.867 229.104 372.402 220.915 354.764 230.119C337.126 239.323 330.994 262.434 341.068 281.739C351.142 301.044 373.607 309.233 391.245 300.029Z" fill="#FF7C67"/>
<path opacity="0.45" d="M391.044 299.644C408.487 290.541 414.552 267.685 404.589 248.593C394.626 229.501 372.409 221.403 354.965 230.505C337.522 239.608 331.457 262.464 341.42 281.556C351.383 300.648 373.6 308.746 391.044 299.644Z" fill="#FF7B66"/>
<path opacity="0.45" d="M390.836 299.247C408.085 290.246 414.085 267.65 404.237 248.777C394.388 229.904 372.421 221.902 355.172 230.903C337.923 239.904 331.923 262.5 341.771 281.373C351.62 300.246 373.587 308.248 390.836 299.247Z" fill="#FF7B66"/>
<path opacity="0.45" d="M390.635 298.862C407.689 289.962 413.622 267.621 403.885 248.961C394.148 230.302 372.428 222.39 355.373 231.29C338.318 240.189 332.386 262.531 342.123 281.19C351.86 299.85 373.58 307.762 390.635 298.862Z" fill="#FF7A65"/>
<path opacity="0.45" d="M390.433 298.477C407.287 289.681 413.147 267.598 403.522 249.151C393.896 230.705 372.429 222.881 355.575 231.676C338.72 240.471 332.86 262.555 342.486 281.001C352.112 299.448 373.579 307.272 390.433 298.477Z" fill="#FF7965"/>
<path opacity="0.45" d="M390.266 298.048C406.926 289.352 412.717 267.522 403.2 249.289C393.684 231.055 372.463 223.324 355.803 232.019C339.143 240.715 333.352 262.545 342.869 280.778C352.385 299.012 373.606 306.744 390.266 298.048Z" fill="#FF7864"/>
<path opacity="0.45" d="M390.059 297.651C406.524 289.057 412.251 267.487 402.848 249.473C393.446 231.459 372.476 223.823 356.01 232.417C339.544 241.011 333.818 262.581 343.221 280.595C352.623 298.609 373.593 306.246 390.059 297.651Z" fill="#FF7763"/>
<path opacity="0.45" d="M389.857 297.266C406.122 288.777 411.776 267.464 402.485 249.663C393.194 231.862 372.477 224.314 356.212 232.804C339.946 241.293 334.293 262.606 343.584 280.406C352.875 298.207 373.592 305.756 389.857 297.266Z" fill="#FF7663"/>
<path opacity="0.45" d="M389.656 296.881C405.727 288.493 411.313 267.435 402.133 249.848C392.954 232.26 372.484 224.802 356.413 233.19C340.342 241.578 334.756 262.636 343.935 280.224C353.115 297.811 373.585 305.269 389.656 296.881Z" fill="#FF7562"/>
<path opacity="0.45" d="M389.454 296.496C405.331 288.209 410.85 267.407 401.782 250.032C392.713 232.657 372.491 225.29 356.614 233.577C340.738 241.863 335.219 262.666 344.287 280.041C353.356 297.415 373.578 304.782 389.454 296.496Z" fill="#FF7462"/>
<path opacity="0.45" d="M389.253 296.111C404.935 287.926 410.387 267.378 401.43 250.216C392.472 233.055 372.498 225.778 356.816 233.963C341.133 242.149 335.682 262.696 344.639 279.858C353.596 297.019 373.571 304.296 389.253 296.111Z" fill="#FF7361"/>
<path opacity="0.45" d="M389.045 295.714C404.527 287.634 409.909 267.349 401.066 250.407C392.223 233.464 372.504 226.281 357.022 234.361C341.541 242.442 336.159 262.727 345.002 279.669C353.844 296.611 373.563 303.795 389.045 295.714Z" fill="#FF7261"/>
<path opacity="0.45" d="M388.845 295.329C404.132 287.35 409.447 267.32 400.715 250.591C391.983 233.862 372.512 226.769 357.225 234.748C341.937 242.727 336.623 262.757 345.354 279.486C354.086 296.215 373.557 303.308 388.845 295.329Z" fill="#FF7160"/>
<path opacity="0.45" d="M388.642 294.944C403.735 287.066 408.983 267.291 400.362 250.775C391.742 234.259 372.518 227.257 357.425 235.134C342.332 243.012 337.085 262.787 345.705 279.303C354.326 295.819 373.549 302.822 388.642 294.944Z" fill="#FF705F"/>
<path opacity="0.45" d="M388.441 294.559C403.34 286.783 408.52 267.263 400.01 250.96C391.501 234.657 372.525 227.745 357.627 235.521C342.728 243.297 337.548 262.817 346.057 279.12C354.566 295.423 373.542 302.335 388.441 294.559Z" fill="#FF6F5F"/>
<path opacity="0.45" d="M388.239 294.174C402.938 286.502 408.045 267.24 399.647 251.15C391.249 235.06 372.526 228.236 357.828 235.908C343.13 243.579 338.022 262.842 346.42 278.931C354.818 295.021 373.541 301.845 388.239 294.174Z" fill="#FF6E5E"/>
<path opacity="0.45" d="M388.032 293.777C402.536 286.207 407.579 267.205 399.295 251.335C391.012 235.464 372.539 228.736 358.035 236.306C343.531 243.876 338.488 262.878 346.772 278.749C355.055 294.619 373.528 301.348 388.032 293.777Z" fill="#FF6D5E"/>
<path opacity="0.45" d="M387.83 293.392C402.14 285.924 407.116 267.176 398.943 251.519C390.771 235.862 372.546 229.224 358.237 236.693C343.927 244.161 338.951 262.909 347.124 278.566C355.296 294.223 373.521 300.861 387.83 293.392Z" fill="#FF6C5D"/>
<path opacity="0.45" d="M387.629 293.007C401.738 285.643 406.641 267.154 398.58 251.709C390.519 236.265 372.547 229.715 358.438 237.079C344.329 244.443 339.426 262.933 347.487 278.377C355.548 293.821 373.52 300.371 387.629 293.007Z" fill="#FF6B5C"/>
<path opacity="0.45" d="M387.428 292.622C401.342 285.36 406.178 267.125 398.228 251.894C390.279 236.663 372.554 230.203 358.639 237.466C344.724 244.729 339.889 262.963 347.839 278.194C355.788 293.425 373.513 299.885 387.428 292.622Z" fill="#FF6A5C"/>
<path opacity="0.45" d="M387.22 292.226C400.94 285.065 405.711 267.09 397.876 252.078C390.041 237.067 372.566 230.703 358.846 237.864C345.126 245.025 340.355 263 348.19 278.012C356.025 293.023 373.499 299.387 387.22 292.226Z" fill="#FF695B"/>
<path opacity="0.45" d="M387.018 291.841C400.544 284.781 405.248 267.062 397.524 252.263C389.8 237.465 372.574 231.191 359.047 238.251C345.521 245.311 340.818 263.031 348.542 277.829C356.266 292.628 373.492 298.901 387.018 291.841Z" fill="#FF685B"/>
<path opacity="0.45" d="M386.817 291.456C400.142 284.501 404.774 267.039 397.161 252.454C389.548 237.868 372.574 231.683 359.249 238.638C345.923 245.593 341.292 263.055 348.905 277.641C356.517 292.226 373.491 298.412 386.817 291.456Z" fill="#FF675A"/>
<path opacity="0.45" d="M371.758 236.251C386.864 236.686 399.679 249.936 400.396 265.849C401.1 281.762 389.437 294.321 374.331 293.886C359.224 293.451 346.409 280.201 345.692 264.288C344.976 248.375 356.651 235.816 371.758 236.251Z" fill="#FF665A"/>
<path opacity="0.45" d="M371.771 236.686C386.647 237.109 399.282 250.167 399.974 265.837C400.665 281.519 389.169 293.886 374.293 293.451C359.417 293.028 346.781 279.97 346.09 264.3C345.398 248.618 356.895 236.251 371.771 236.686Z" fill="#FF6559"/>
<path opacity="0.45" d="M371.796 237.109C386.455 237.531 398.885 250.385 399.577 265.824C400.268 281.263 388.938 293.438 374.28 293.028C359.621 292.606 347.191 279.753 346.499 264.313C345.808 248.874 357.138 236.699 371.796 237.109Z" fill="#FF6458"/>
<path opacity="0.45" d="M371.809 237.544C386.237 237.954 398.488 250.615 399.167 265.811C399.845 281.02 388.695 293.003 374.267 292.593C359.839 292.183 347.587 279.522 346.909 264.326C346.23 249.117 357.381 237.134 371.809 237.544Z" fill="#FF6358"/>
<path opacity="0.45" d="M371.834 237.967C386.045 238.376 398.091 250.833 398.757 265.798C399.423 280.764 388.451 292.567 374.241 292.158C360.031 291.748 347.984 279.292 347.318 264.326C346.653 249.373 357.624 237.57 371.834 237.967Z" fill="#FF6257"/>
<path opacity="0.45" d="M371.847 238.402C385.827 238.799 397.695 251.063 398.347 265.785C399 280.508 388.195 292.132 374.215 291.735C360.236 291.338 348.368 279.074 347.715 264.352C347.062 249.616 357.867 238.005 371.847 238.402Z" fill="#FF6157"/>
<path opacity="0.45" d="M371.873 238.837C385.623 239.234 397.298 251.293 397.939 265.785C398.579 280.277 387.953 291.71 374.203 291.313C360.454 290.916 348.779 278.856 348.138 264.364C347.486 249.872 358.111 238.44 371.873 238.837Z" fill="#FF6056"/>
<path opacity="0.45" d="M371.886 239.26C385.417 239.644 396.901 251.511 397.528 265.76C398.168 280.009 387.709 291.249 374.177 290.865C360.645 290.481 349.162 278.613 348.535 264.364C347.907 250.116 358.354 238.875 371.886 239.26Z" fill="#FF5F56"/>
<path opacity="0.45" d="M371.911 239.695C385.212 240.079 396.504 251.742 397.131 265.76C397.759 279.778 387.478 290.826 374.177 290.455C360.876 290.071 349.584 278.408 348.957 264.39C348.33 250.372 358.61 239.311 371.911 239.695Z" fill="#FF5E55"/>
</g>
<g opacity="0.45">
<path opacity="0.45" d="M292.782 287.941C308.517 261.549 302.887 229.191 280.205 215.667C257.523 202.144 226.379 212.576 210.644 238.968C194.908 265.36 200.539 297.718 223.22 311.242C245.902 324.765 277.046 314.333 292.782 287.941Z" fill="#FF9877"/>
<path opacity="0.45" d="M292.429 287.731C308.031 261.564 302.449 229.482 279.962 216.074C257.474 202.666 226.597 213.01 210.995 239.178C195.393 265.345 200.975 297.427 223.463 310.835C245.95 324.243 276.828 313.899 292.429 287.731Z" fill="#FF9776"/>
<path opacity="0.45" d="M292.078 287.521C307.546 261.579 302.013 229.773 279.72 216.481C257.427 203.189 226.815 213.445 211.347 239.388C195.88 265.33 201.412 297.136 223.706 310.428C245.999 323.72 276.61 313.464 292.078 287.521Z" fill="#FF9676"/>
<path opacity="0.45" d="M291.737 287.318C307.071 261.6 301.582 230.067 279.477 216.888C257.372 203.708 227.022 213.873 211.688 239.591C196.354 265.309 201.843 296.842 223.948 310.021C246.053 323.201 276.403 313.036 291.737 287.318Z" fill="#FF9575"/>
<path opacity="0.45" d="M291.385 287.108C306.585 261.615 301.145 230.358 279.234 217.295C257.324 204.231 227.24 214.307 212.04 239.801C196.84 265.294 202.28 296.551 224.191 309.615C246.101 322.678 276.185 312.602 291.385 287.108Z" fill="#FF9475"/>
<path opacity="0.45" d="M291.044 286.905C306.11 261.636 300.714 230.653 278.991 217.701C257.269 204.75 227.446 214.735 212.38 240.004C197.314 265.273 202.71 296.256 224.433 309.208C246.155 322.159 275.978 312.174 291.044 286.905Z" fill="#FF9374"/>
<path opacity="0.45" d="M290.692 286.695C305.628 261.645 300.284 230.933 278.756 218.097C257.228 205.262 227.668 215.163 212.733 240.214C197.797 265.264 203.141 295.976 224.669 308.812C246.197 321.647 275.757 311.746 290.692 286.695Z" fill="#FF9274"/>
<path opacity="0.45" d="M290.34 286.486C305.142 261.66 299.847 231.224 278.513 218.504C257.179 205.784 227.886 215.598 213.084 240.423C198.283 265.249 203.578 295.685 224.912 308.405C246.245 321.125 275.539 311.311 290.34 286.486Z" fill="#FF9173"/>
<path opacity="0.45" d="M290 286.282C304.667 261.682 299.416 231.518 278.271 218.911C257.125 206.303 228.093 216.026 213.425 240.627C198.758 265.227 204.009 295.391 225.154 307.998C246.3 320.606 275.332 310.883 290 286.282Z" fill="#FF9072"/>
<path opacity="0.45" d="M289.647 286.073C304.181 261.696 298.979 231.809 278.028 219.318C257.077 206.826 228.311 216.46 213.777 240.836C199.243 265.213 204.446 295.1 225.397 307.591C246.348 320.083 275.114 310.449 289.647 286.073Z" fill="#FF8F72"/>
<path opacity="0.45" d="M289.296 285.863C303.696 261.711 298.542 232.1 277.786 219.725C257.029 207.349 228.529 216.895 214.129 241.046C199.729 265.198 204.883 294.809 225.64 307.184C246.396 319.56 274.896 310.014 289.296 285.863Z" fill="#FF8E71"/>
<path opacity="0.45" d="M288.955 285.66C303.22 261.733 298.111 232.395 277.543 220.131C256.974 207.868 228.735 217.323 214.47 241.25C200.204 265.176 205.313 294.514 225.882 306.778C246.45 319.041 274.689 309.586 288.955 285.66Z" fill="#FF8D71"/>
<path opacity="0.45" d="M288.603 285.45C302.739 261.742 297.681 232.675 277.307 220.527C256.933 208.38 228.957 217.751 214.822 241.459C200.687 265.167 205.744 294.234 226.118 306.382C246.492 318.529 274.468 309.158 288.603 285.45Z" fill="#FF8C70"/>
<path opacity="0.45" d="M288.251 285.24C302.253 261.757 297.244 232.966 277.064 220.934C256.884 208.902 229.175 218.186 215.174 241.669C201.172 265.152 206.181 293.943 226.361 305.975C246.54 318.007 274.25 308.723 288.251 285.24Z" fill="#FF8B70"/>
<path opacity="0.45" d="M287.91 285.037C301.778 261.778 296.813 233.26 276.822 221.341C256.83 209.421 229.382 218.614 215.515 241.872C201.647 265.131 206.612 293.649 226.603 305.568C246.595 317.488 274.043 308.295 287.91 285.037Z" fill="#FF8A6F"/>
<path opacity="0.45" d="M287.558 284.827C301.292 261.793 296.376 233.551 276.579 221.748C256.782 209.944 229.6 219.048 215.866 242.082C202.133 265.116 207.048 293.358 226.846 305.161C246.643 316.965 273.825 307.861 287.558 284.827Z" fill="#FF896E"/>
<path opacity="0.45" d="M287.207 284.617C300.806 261.808 295.94 233.842 276.337 222.155C256.734 210.467 229.818 219.483 216.218 242.292C202.619 265.101 207.486 293.067 227.088 304.754C246.691 316.442 273.607 307.426 287.207 284.617Z" fill="#FF886E"/>
<path opacity="0.45" d="M286.865 284.414C300.331 261.829 295.508 234.137 276.094 222.561C256.679 210.986 230.024 219.911 216.559 242.495C203.093 265.08 207.916 292.772 227.331 304.348C246.745 315.923 273.4 306.999 286.865 284.414Z" fill="#FF876D"/>
<path opacity="0.45" d="M286.514 284.204C299.849 261.838 295.079 234.417 275.858 222.957C256.638 211.498 230.246 220.339 216.911 242.705C203.576 265.071 208.347 292.492 227.567 303.952C246.787 315.411 273.179 306.57 286.514 284.204Z" fill="#FF866D"/>
<path opacity="0.45" d="M286.162 283.994C299.363 261.853 294.641 234.708 275.615 223.364C256.589 212.02 230.464 220.773 217.263 242.915C204.062 265.056 208.783 292.201 227.809 303.545C246.835 314.889 272.961 306.136 286.162 283.994Z" fill="#FF856C"/>
<path opacity="0.45" d="M285.821 283.791C298.889 261.874 294.211 235.003 275.373 223.771C256.535 212.539 230.671 221.201 217.604 243.118C204.536 265.035 209.214 291.906 228.052 303.138C246.89 314.37 272.754 305.708 285.821 283.791Z" fill="#FF846B"/>
<path opacity="0.45" d="M285.469 283.581C298.402 261.889 293.774 235.294 275.13 224.178C256.487 213.062 230.889 221.636 217.955 243.328C205.022 265.02 209.651 291.616 228.294 302.731C246.938 313.847 272.536 305.273 285.469 283.581Z" fill="#FF836B"/>
<path opacity="0.45" d="M285.118 283.372C297.917 261.904 293.337 235.585 274.888 224.585C256.439 213.585 231.107 222.07 218.308 243.538C205.508 265.005 210.088 291.325 228.537 302.324C246.986 313.324 272.318 304.839 285.118 283.372Z" fill="#FF826A"/>
<path opacity="0.45" d="M284.777 283.168C297.446 261.92 292.912 235.868 274.652 224.98C256.391 214.093 231.317 222.492 218.648 243.741C205.979 264.989 210.512 291.041 228.773 301.929C247.034 312.816 272.107 304.417 284.777 283.168Z" fill="#FF816A"/>
<path opacity="0.45" d="M284.425 282.958C296.96 261.935 292.476 236.159 274.409 225.387C256.343 214.616 231.535 222.927 219 243.951C206.465 264.974 210.949 290.75 229.016 301.522C247.082 312.293 271.89 303.982 284.425 282.958Z" fill="#FF8069"/>
<path opacity="0.45" d="M284.084 282.755C296.485 261.956 292.045 236.454 274.166 225.794C256.288 215.135 231.742 223.355 219.341 244.154C206.94 264.953 211.38 290.455 229.258 301.115C247.136 311.774 271.683 303.554 284.084 282.755Z" fill="#FF7F69"/>
<path opacity="0.45" d="M283.732 282.545C295.999 261.971 291.608 236.745 273.924 226.201C256.24 215.657 231.96 223.789 219.693 244.364C207.426 264.938 211.817 290.164 229.501 300.708C247.185 311.252 271.465 303.12 283.732 282.545Z" fill="#FF7E68"/>
<path opacity="0.45" d="M283.38 282.336C295.513 261.986 291.171 237.036 273.681 226.608C256.192 216.18 232.178 224.224 220.045 244.573C207.912 264.923 212.254 289.873 229.743 300.301C247.233 310.729 271.247 302.686 283.38 282.336Z" fill="#FF7D67"/>
<path opacity="0.45" d="M283.039 282.132C295.038 262.007 290.74 237.33 273.439 227.015C256.138 216.699 232.385 224.651 220.386 244.777C208.386 264.902 212.685 289.579 229.986 299.894C247.287 310.21 271.04 302.258 283.039 282.132Z" fill="#FF7C67"/>
<path opacity="0.45" d="M282.687 281.923C294.556 262.016 290.31 237.61 273.203 227.411C256.096 217.211 232.606 225.08 220.737 244.986C208.869 264.893 213.115 289.299 230.222 299.498C247.329 309.698 270.819 301.829 282.687 281.923Z" fill="#FF7B66"/>
<path opacity="0.45" d="M282.336 281.713C294.071 262.031 289.873 237.901 272.961 227.817C256.048 217.734 232.824 225.514 221.09 245.196C209.355 264.878 213.552 289.008 230.465 299.092C247.378 309.175 270.601 301.395 282.336 281.713Z" fill="#FF7B66"/>
<path opacity="0.45" d="M281.994 281.51C293.595 262.052 289.442 238.196 272.718 228.224C255.993 218.253 233.031 225.942 221.43 245.399C209.829 264.857 213.983 288.713 230.707 298.685C247.431 308.656 270.394 300.967 281.994 281.51Z" fill="#FF7A65"/>
<path opacity="0.45" d="M281.643 281.3C293.11 262.067 289.005 238.487 272.475 228.631C255.945 218.775 233.249 226.377 221.782 245.609C210.315 264.842 214.42 288.422 230.95 298.278C247.48 308.134 270.176 300.532 281.643 281.3Z" fill="#FF7965"/>
<path opacity="0.45" d="M281.291 281.09C292.624 262.082 288.568 238.778 272.233 229.038C255.897 219.298 233.467 226.811 222.134 245.819C210.801 264.827 214.857 288.131 231.192 297.871C247.528 307.611 269.958 300.098 281.291 281.09Z" fill="#FF7864"/>
<path opacity="0.45" d="M280.95 280.887C292.149 262.104 288.137 239.072 271.99 229.445C255.843 219.817 233.674 227.239 222.475 246.022C211.276 264.805 215.287 287.837 231.435 297.464C247.582 307.092 269.751 299.67 280.95 280.887Z" fill="#FF7763"/>
<path opacity="0.45" d="M280.598 280.677C291.667 262.113 287.707 239.352 271.754 229.841C255.801 220.329 233.895 227.668 222.827 246.232C211.758 264.796 215.718 287.557 231.671 297.068C247.624 306.58 269.53 299.241 280.598 280.677Z" fill="#FF7663"/>
<path opacity="0.45" d="M280.247 280.467C291.181 262.127 287.271 239.643 271.512 230.247C255.753 220.852 234.114 228.102 223.179 246.442C212.244 264.782 216.155 287.266 231.914 296.662C247.673 306.057 269.312 298.807 280.247 280.467Z" fill="#FF7562"/>
<path opacity="0.45" d="M279.905 280.264C290.706 262.149 286.839 239.938 271.269 230.654C255.698 221.371 234.32 228.53 223.519 246.645C212.719 264.76 216.585 286.971 232.156 296.255C247.726 305.538 269.105 298.379 279.905 280.264Z" fill="#FF7462"/>
<path opacity="0.45" d="M279.554 280.054C290.221 262.164 286.403 240.229 271.026 231.061C255.65 221.893 234.538 228.964 223.871 246.855C213.205 264.745 217.023 286.68 232.399 295.848C247.775 305.016 268.887 297.945 279.554 280.054Z" fill="#FF7361"/>
<path opacity="0.45" d="M279.202 279.844C289.734 262.179 285.966 240.52 270.784 231.468C255.602 222.416 234.756 229.399 224.223 247.065C213.69 264.73 217.459 286.389 232.641 295.441C247.823 304.493 268.669 297.51 279.202 279.844Z" fill="#FF7261"/>
<path opacity="0.45" d="M278.861 279.641C289.26 262.2 285.535 240.814 270.541 231.875C255.547 222.935 234.963 229.827 224.564 247.268C214.165 264.709 217.89 286.095 232.884 295.034C247.877 303.974 268.462 297.082 278.861 279.641Z" fill="#FF7160"/>
<path opacity="0.45" d="M278.509 279.431C288.778 262.209 285.104 241.094 270.305 232.271C255.506 223.447 235.184 230.255 224.916 247.478C214.647 264.7 218.32 285.815 233.12 294.638C247.919 303.462 268.241 296.654 278.509 279.431Z" fill="#FF705F"/>
<path opacity="0.45" d="M278.157 279.222C288.292 262.224 284.668 241.385 270.063 232.678C255.458 223.97 235.403 230.69 225.268 247.687C215.134 264.685 218.758 285.524 233.363 294.232C247.968 302.939 268.023 296.219 278.157 279.222Z" fill="#FF6F5F"/>
<path opacity="0.45" d="M277.816 279.018C287.817 262.245 284.237 241.68 269.82 233.084C255.403 224.489 235.609 231.118 225.609 247.891C215.608 264.664 219.188 285.229 233.605 293.825C248.022 302.42 267.816 295.791 277.816 279.018Z" fill="#FF6E5E"/>
<path opacity="0.45" d="M277.465 278.809C287.331 262.26 283.8 241.971 269.578 233.491C255.355 225.011 235.827 231.552 225.961 248.1C216.094 264.649 219.625 284.938 233.848 293.418C248.07 301.898 267.598 295.357 277.465 278.809Z" fill="#FF6D5E"/>
<path opacity="0.45" d="M277.113 278.599C286.845 262.275 283.363 242.262 269.335 233.898C255.307 225.534 236.045 231.987 226.312 248.31C216.58 264.634 220.062 284.647 234.09 293.011C248.118 301.375 267.38 294.922 277.113 278.599Z" fill="#FF6C5D"/>
<path opacity="0.45" d="M276.772 278.396C286.374 262.291 282.939 242.546 269.099 234.294C255.259 226.042 236.256 232.409 226.653 248.514C217.051 264.618 220.487 284.363 234.326 292.615C248.166 300.867 267.17 294.501 276.772 278.396Z" fill="#FF6B5C"/>
<path opacity="0.45" d="M276.42 278.186C285.888 262.305 282.502 242.837 268.856 234.701C255.211 226.565 236.473 232.843 227.005 248.723C217.537 264.604 220.923 284.072 234.569 292.208C248.214 300.344 266.952 294.066 276.42 278.186Z" fill="#FF6A5C"/>
<path opacity="0.45" d="M276.079 277.982C285.413 262.327 282.071 243.131 268.614 235.108C255.157 227.084 236.68 233.271 227.346 248.927C218.012 264.582 221.354 283.778 234.811 291.801C248.269 299.825 266.745 293.638 276.079 277.982Z" fill="#FF695B"/>
<path opacity="0.45" d="M275.727 277.773C284.927 262.342 281.634 243.422 268.371 235.514C255.108 227.607 236.898 233.705 227.698 249.136C218.497 264.567 221.791 283.487 235.054 291.395C248.317 299.302 266.527 293.204 275.727 277.773Z" fill="#FF685B"/>
<path opacity="0.45" d="M275.375 277.563C284.442 262.357 281.197 243.713 268.129 235.921C255.06 228.129 237.116 234.14 228.05 249.346C218.984 264.552 222.228 283.196 235.297 290.988C248.365 298.78 266.309 292.769 275.375 277.563Z" fill="#FF675A"/>
<path opacity="0.45" d="M275.034 277.36C283.967 262.378 280.766 244.008 267.886 236.328C255.005 228.648 237.323 234.568 228.39 249.549C219.458 264.531 222.658 282.901 235.539 290.581C248.419 298.261 266.102 292.341 275.034 277.36Z" fill="#FF665A"/>
<path opacity="0.45" d="M274.683 277.15C283.485 262.387 280.336 244.288 267.65 236.724C254.964 229.16 237.545 234.996 228.743 249.759C219.941 264.522 223.089 282.621 235.775 290.185C248.461 297.749 265.881 291.913 274.683 277.15Z" fill="#FF6559"/>
<path opacity="0.45" d="M274.331 276.94C282.999 262.402 279.899 244.579 267.408 237.131C254.916 229.683 237.762 235.431 229.094 249.969C220.426 264.507 223.526 282.33 236.018 289.778C248.509 297.226 265.663 291.478 274.331 276.94Z" fill="#FF6458"/>
<path opacity="0.45" d="M273.99 276.737C282.524 262.423 279.468 244.873 267.165 237.538C254.862 230.202 237.969 235.859 229.435 250.172C220.901 264.486 223.957 282.036 236.26 289.371C248.564 296.707 265.456 291.05 273.99 276.737Z" fill="#FF6358"/>
<path opacity="0.45" d="M273.638 276.527C282.038 262.438 279.031 245.164 266.922 237.944C254.813 230.725 238.187 236.293 229.787 250.382C221.387 264.471 224.394 281.745 236.503 288.965C248.612 296.184 265.238 290.616 273.638 276.527Z" fill="#FF6257"/>
<path opacity="0.45" d="M273.286 276.317C281.552 262.453 278.595 245.455 266.68 238.351C254.765 231.247 238.405 236.728 230.139 250.592C221.873 264.456 224.831 281.454 236.745 288.558C248.66 295.662 265.02 290.181 273.286 276.317Z" fill="#FF6157"/>
<path opacity="0.45" d="M272.945 276.114C281.077 262.475 278.163 245.75 266.437 238.758C254.71 231.766 238.612 237.156 230.48 250.795C222.347 264.434 225.261 281.159 236.988 288.151C248.714 295.143 264.813 289.754 272.945 276.114Z" fill="#FF6056"/>
<path opacity="0.45" d="M272.594 275.904C280.596 262.483 277.734 246.03 266.201 239.154C254.669 232.278 238.834 237.584 230.832 251.005C222.83 264.426 225.692 280.879 237.224 287.755C248.756 294.631 264.592 289.325 272.594 275.904Z" fill="#FF5F56"/>
<path opacity="0.45" d="M272.242 275.694C280.109 262.498 277.297 246.321 265.959 239.561C254.621 232.801 239.051 238.018 231.184 251.215C223.316 264.411 226.129 280.588 237.467 287.348C248.804 294.108 264.374 288.891 272.242 275.694Z" fill="#FF5E55"/>
</g>
<path d="M160.011 211.607C173.684 207.395 186.294 224.537 191.965 244.662C197.637 264.787 194.231 280.265 180.559 284.476C166.886 288.688 151.203 275.797 145.532 255.672C139.861 235.547 146.339 215.819 160.011 211.607Z" fill="#FF9877"/>
<path d="M156.401 258.322C169.075 267.258 183.093 265.184 193.514 257.451C192.503 274.12 194.628 305.92 217.095 339.282C235.134 366.064 276.267 376.498 307.158 376.754C380.86 377.368 401.228 355.759 417.717 326.083C405.837 358.908 378.991 388.57 320.946 389.915C213.408 392.411 185.909 346.349 184.616 282.595C183.336 283.376 181.992 284.028 180.545 284.464C166.873 288.676 151.19 275.784 145.519 255.659C144.059 250.474 143.419 245.328 143.483 240.45C145.583 247.363 149.731 253.623 156.401 258.322Z" fill="#FF8568"/>
<path d="M180.558 250.961L168.179 252.164C169.177 232.756 155.057 225.638 155.057 225.638C178.83 218.264 180.558 250.961 180.558 250.961Z" fill="#FF8568"/>
<path d="M260.443 294.73C260.456 294.667 260.469 294.629 260.469 294.629C260.469 294.629 260.456 294.667 260.443 294.73Z" fill="#7C302A"/>
<path d="M226.979 37.7418C226.979 37.7544 226.992 37.7671 226.992 37.7671C226.992 37.7544 226.979 37.7544 226.979 37.7418Z" fill="#563428"/>
<path d="M185.128 53.8596C193.936 39.995 208.095 40.0462 219.694 43.3235C215.956 37.4345 217.646 32.4545 217.646 32.4545C225.033 33.9524 226.851 37.4601 226.979 37.7418C221.883 27.2953 226.377 13.6098 226.377 13.6098C241.099 22.981 239.038 34.9893 239.038 34.9893C247.18 19.8061 270.237 16.0422 270.237 16.0422C270.006 18.2442 269.392 20.4206 268.534 22.5457C307.286 -0.562072 362.604 0.00121729 362.604 0.00121729C362.092 5.21167 359.186 10.3581 356.753 13.8531C388.899 14.7492 414.273 20.0365 414.273 20.0365C419.714 60.4399 409.127 81.4225 399.115 91.9715C429.892 138.443 416.629 200.815 416.629 200.815C410.612 155.508 396.875 117.396 375.457 115.297L369.171 114.055C361.144 119.035 345.616 123.004 320.088 122.773C285.817 122.466 258.83 111.059 258.83 111.059C244.799 111.443 228.156 145.228 219.208 164.841C209.337 186.502 197.726 199.151 198.75 225.587C199.3 239.823 181.467 222.77 181.467 222.77C181.467 222.77 181.198 208.97 183.336 189.011C182.504 185.03 162.443 89.5647 185.128 53.8596Z" fill="url(#paint0_linear)"/>
<path d="M411.06 71.7953C450.542 85.8392 425.258 242.012 425.258 242.012C424.49 246.134 423.401 244.035 423.12 241.769C420.547 221.311 408.845 192.353 397.144 159.195C389.13 136.446 378.492 114.964 369.185 114.055C383.088 107.142 402.982 87.1451 411.06 71.7953Z" fill="#59352C"/>
<path opacity="0.12" d="M251.252 51.5937L251.227 51.6065C251.163 51.5937 251.021 51.568 251.252 51.5937Z" fill="white"/>
<path opacity="0.11" d="M188.867 49.0972C189.29 48.9948 189.7 48.8796 190.122 48.79C195.294 49.8142 200.735 51.2864 206.342 52.7714C219.733 56.3048 233.867 58.9165 247.808 57.8155C264.003 56.5353 278.457 50.4031 293.077 44.2581C300.451 41.1599 307.812 37.9978 315.391 35.335C331.624 29.6381 350.712 24.1972 368.25 25.567C376.93 26.2455 385.341 29.1388 393.189 32.5954C400.473 35.7703 406.362 40.2894 410.664 44.7701C411.509 45.6407 414.786 47.8298 415.503 48.7004C414.658 54.4357 414.914 60.043 413.186 64.4854C410.715 62.7571 403.635 59.1597 400.345 57.6362C396.159 55.8183 391.486 54.1669 386.109 53.5268C365.28 51.0432 345.501 58.0459 326.298 64.511C318.425 67.161 310.411 70.2975 301.948 73.1524C293.512 76.0969 284.73 78.8493 275.563 81.0257C260.137 84.6871 241.484 85.1607 226.173 80.3727C224.099 79.7326 222.051 79.1694 220.066 78.4908C212.18 75.7 205.357 72.3074 199.442 69.1325C193.54 65.9192 188.483 63.0003 184.016 60.7728C183.324 60.4143 182.646 60.0814 181.98 59.7614C182.915 57.649 183.952 55.6647 185.104 53.834C186.294 52.0417 187.549 50.4671 188.867 49.0972Z" fill="#FFBA80"/>
<path opacity="0.12" d="M251.545 51.632C251.507 51.632 251.481 51.6193 251.456 51.6193L251.545 51.632Z" fill="white"/>
<path d="M198.776 222.783C202.27 297.215 248.332 313.281 265.321 315.24C275.703 318.504 278.942 326.723 284.421 325.968C279.006 340.178 273.015 373.118 311.011 374.846C344.809 376.383 356.216 356.86 345.923 324.265C359.045 321.91 380.437 320.553 391.959 313.115C415.694 297.803 422.633 248.016 423.119 241.769C423.849 241.769 424.604 241.538 425.321 241.487C437.202 309.389 434.078 423.84 298.76 415.365C158.065 406.544 183.247 283.363 183.247 283.363C191.107 259.948 181.493 222.77 181.493 222.77H198.776V222.783Z" fill="url(#paint1_linear)"/>
<path d="M342.057 344.672C345.27 327.376 331.969 305.075 312.855 310.042C295.393 314.587 280.556 338.693 291.962 355.605C299.336 366.538 314.942 368.266 326.387 364.234C335.349 361.084 340.444 353.352 342.057 344.672Z" fill="url(#paint2_linear)"/>
<path d="M322.405 283.017C322.405 283.017 341.609 278.05 359.378 300.274C374.408 319.081 372.065 344.019 372.065 344.019C372.065 344.019 359.186 339.116 319.743 314.305C279.122 340.665 259.637 339.333 259.637 339.333C259.637 339.333 261.327 278.447 322.405 283.017Z" fill="#563428"/>
<path opacity="0.63" d="M366.01 238.21C359.673 239.887 347.024 252.074 347.024 252.074C330.42 221.9 334.081 195.681 334.081 195.681C340.956 205.603 394.917 209.29 394.917 209.29C401.753 225.574 403.865 245.571 403.955 247.094C399.833 243.062 392.164 238.235 386.429 237.48C379.797 236.097 372.846 236.405 366.01 238.21Z" fill="#FF8568"/>
<path opacity="0.63" d="M226.109 244.368C225.597 244.15 221.333 248.003 221.333 248.003C221.333 248.003 219.26 217.97 228.119 204.003C236.862 190.215 262.569 203.695 273.976 203.132C293.499 202.185 297.058 195.015 297.058 195.015C309.092 224.499 285.613 252.126 285.613 252.126C285.613 252.126 255.08 222.745 226.109 244.368Z" fill="#FF8568"/>
<path d="M383.305 199.317C393.163 201.839 395.608 211.095 395.608 211.095C382.972 208.535 351.722 223.411 340.854 215.115C332.186 208.496 334.312 194.286 334.312 194.286C347.024 206.256 366.483 195.015 383.305 199.317Z" fill="#472A21"/>
<path d="M244.006 195.681C261.826 193.326 281.401 205.001 297.058 195.015C297.058 195.015 301.474 207.587 294.075 214.065C290.285 217.381 280.044 218.738 265.244 216.561C255.22 215.089 237.771 205.603 226.108 207.946C226.108 207.933 230.32 197.499 244.006 195.681Z" fill="#472A21"/>
<path d="M441.58 601.828L439.494 559.465H450.862L452.693 600.88C448.993 601.2 445.28 601.508 441.58 601.828Z" fill="#FAC2A4"/>
<path d="M379.656 230.221C395.454 231.668 403.955 247.005 403.968 247.094C403.968 247.094 395.557 242.767 376.2 243.203C356.561 243.651 347.037 252.074 347.037 252.087C347.037 251.806 348.547 227.379 379.656 230.221Z" fill="#3E1208"/>
<path d="M256.731 228.736C282.271 230.836 285.625 252.113 285.625 252.113C285.625 252.113 275 243.74 254.12 242.831C231.69 241.858 221.359 247.978 221.346 247.991C221.333 248.003 232.292 226.739 256.731 228.736Z" fill="#3E1208"/>
<path d="M439.494 591.842C485.325 585.031 521.248 574.098 538.992 568.363C541.629 567.518 544.445 568.952 545.29 571.589C545.764 573.087 546.302 574.687 546.788 576.159C547.671 578.758 546.263 581.613 543.652 582.496C524.935 588.872 488.513 600.56 440.595 607.448L439.494 591.842Z" fill="#FFEADD"/>
<path d="M136.186 553.628L146.978 551.963L138.99 522.749L128.198 524.413L136.186 553.628Z" fill="#FAC2A4"/>
<path d="M229.514 101.432L236.9 95.6584C245.183 104.812 254.708 109.408 258.779 111.072C255.131 111.2 251.29 113.594 247.475 117.396C237.989 112.301 229.514 101.432 229.514 101.432Z" fill="#4C2D27"/>
<path d="M323.097 225.958C322.636 225.958 325.056 241.295 325.427 242.665C326.823 247.773 328.679 252.497 333.697 254.955C343.683 259.858 357.061 265.197 356.664 278.664C356.267 291.761 341.251 297.01 330.241 297.842C319.461 298.661 307.274 294.897 300.463 286.154C286.048 267.655 301.577 242.562 312.023 226.201C315.698 226.086 319.397 225.997 323.097 225.958Z" fill="url(#paint3_linear)"/>
<path opacity="0.35" d="M356.242 281.686C353.809 292.567 340.341 297.074 330.228 297.842C319.448 298.661 307.261 294.897 300.45 286.154C299.247 284.617 298.274 283.03 297.48 281.417C306.224 287.754 346.986 289.93 356.242 281.686Z" fill="#D13F33"/>
<path opacity="0.16" d="M323.583 247.658C324.351 251.754 327.053 256.901 335.246 261.292C344.976 266.515 344.784 274.657 333.428 275.4C322.06 276.142 318.014 271.559 316.427 250C315.659 239.708 323.058 244.867 323.583 247.658Z" fill="white"/>
<path d="M369.159 339.833C369.159 339.833 365.19 332.945 359.34 332.728C359.34 332.728 351.428 319.029 347.229 319.145C339.714 319.349 283.513 338.361 277.662 347.77C271.812 357.167 277.867 461.44 271.185 471.259L327.795 497.759C327.795 497.759 350.98 472.898 347.639 444.49C347.639 444.49 352.657 432.161 354.949 428.193C354.949 428.193 364.768 423.802 370.823 416.492C376.879 409.182 379.388 387.239 379.388 387.239C379.388 387.239 380.642 379.724 379.388 372.401C379.388 372.401 399.449 344.198 402.368 336.683C405.286 329.169 389.63 322.473 380.847 328.951C372.078 335.442 369.159 339.833 369.159 339.833Z" fill="#FF9677"/>
<path d="M305.751 386.266L299.503 385.831C299.542 385.242 300.041 379.942 304.996 375.167C305.968 374.219 308.964 371.352 339.958 371.582C344.989 371.62 370.363 371.953 375.279 374.68C377.212 375.756 378.736 377.484 379.952 379.443C379.952 383.859 379.401 387.239 379.401 387.239C379.401 387.239 379.158 389.377 378.633 392.539L378.019 392.629C377.532 389.339 375.471 381.952 372.258 380.159C370.568 379.34 359.366 378.021 340.713 377.842C320.96 377.663 311.013 378.918 309.207 379.788C306.097 382.899 305.751 386.164 305.751 386.266Z" fill="#FF8368"/>
<path d="M370.708 354.888C364.794 352.353 304.752 361.648 298.543 364.323C294.293 366.167 293.153 369.956 293.128 370.084L287.072 368.484C287.149 368.202 288.954 361.648 296.059 358.575C299.362 357.141 318.015 353.787 333.352 351.534C367.623 346.515 371.937 348.551 373.358 349.204C378.62 351.675 382.038 359.484 383.997 365.834C381.283 369.739 379.388 372.414 379.388 372.414C379.465 372.824 379.516 373.233 379.58 373.643C377.993 366.397 374.472 356.655 370.708 354.888Z" fill="#FF8368"/>
<path d="M327.463 340.844C290.964 347.693 287.034 353.941 286.611 355.119L280.709 353.045C282.297 348.538 288.749 341.74 326.311 334.686C338.204 332.459 349.969 330.82 357.586 329.873C358.661 331.537 359.34 332.728 359.34 332.728C361.657 332.804 363.667 333.944 365.255 335.275C360.39 335.813 344.054 337.733 327.463 340.844Z" fill="#FF8368"/>
<path d="M369.16 339.833C369.16 339.833 370.222 338.245 372.949 335.595C375.036 339.666 377.788 346.234 376.636 350.676C376.163 352.481 375.113 353.902 373.577 354.773L370.478 349.332C371.375 348.205 369.48 341.881 365.985 335.928C367.982 337.81 369.16 339.833 369.16 339.833Z" fill="#FF8368"/>
<path d="M274.385 466.125C274.385 466.125 216.29 560.784 161.151 617.613L141.461 551.362C141.461 551.362 53.7158 533.823 17.8315 598.64C17.8315 598.64 54.8808 794.832 114.551 801.054C184.796 808.377 303.293 561.808 327.809 497.004C327.796 496.991 306.762 474.997 274.385 466.125Z" fill="#FF9677"/>
<path d="M80.7285 692.492L70.7173 688.139C81.7655 662.778 106.538 644.638 128.404 628.648C139.221 620.736 149.54 613.17 157.515 605.374L160.998 617.075C153.291 623.975 144.253 630.594 134.856 637.469C113.092 653.369 90.5861 669.832 80.7285 692.492Z" fill="#FF7F66"/>
<path d="M271.185 471.259C277.087 462.566 273.041 380.121 276.063 354.594C275.512 358.306 302.179 407.21 308.554 408.452C314.93 409.707 351.16 400.95 351.16 400.95L345.924 410.884C345.924 410.884 342.224 423.584 345.924 428.59C347.447 430.638 350.11 431.88 352.734 432.635C350.379 437.756 347.639 444.49 347.639 444.49C350.98 472.898 327.796 497.759 327.796 497.759L327.553 497.644C325.159 503.956 321.894 511.906 317.913 521.123L258.908 490.309C264.323 482.064 268.535 475.458 271.185 471.259Z" fill="url(#paint4_linear)"/>
<path d="M352.017 400.387L355.064 405.866C354.027 406.481 349.047 410.923 347.703 412.997C346.064 415.506 342.953 422.176 349.38 429.972C350.34 431.137 353.323 429.588 354.706 428.654C353.694 430.51 352.26 433.647 350.955 436.642C350.75 436.655 350.532 436.681 350.327 436.681C348.241 436.681 346.192 435.951 344.554 433.954C335.221 422.637 340.598 412.421 342.467 409.566C344.323 406.711 350.071 401.475 352.017 400.387Z" fill="#FF8368"/>
<path d="M20.7245 609.33C33.7698 579.872 58.5418 563.703 95.6167 558.275C115.959 555.292 134.497 557.046 143.522 558.275C143.522 558.275 145.263 564.394 145.34 564.407L149.706 552.348C143.957 546.075 124.818 540.403 94.0293 544.846C52.384 550.837 24.8723 567.953 9.9707 601.623L16.2309 615.398H21.4414L20.7245 609.33Z" fill="#FFEADD"/>
<defs>
<linearGradient id="paint0_linear" x1="295.389" y1="17.8592" x2="296.511" y2="106.45" gradientUnits="userSpaceOnUse">
<stop stop-color="#75483B"/>
<stop offset="0.3502" stop-color="#704538"/>
<stop offset="0.7495" stop-color="#633C30"/>
<stop offset="1" stop-color="#563428"/>
</linearGradient>
<linearGradient id="paint1_linear" x1="305.063" y1="286.519" x2="303.908" y2="346.58" gradientUnits="userSpaceOnUse">
<stop stop-color="#59352C"/>
<stop offset="0.4351" stop-color="#54322A"/>
<stop offset="0.9313" stop-color="#472A24"/>
<stop offset="1" stop-color="#442823"/>
</linearGradient>
<linearGradient id="paint2_linear" x1="317.809" y1="347.888" x2="307.231" y2="315.813" gradientUnits="userSpaceOnUse">
<stop stop-color="#911C2D"/>
<stop offset="0.8354"/>
</linearGradient>
<linearGradient id="paint3_linear" x1="323.531" y1="228.818" x2="326.284" y2="287.39" gradientUnits="userSpaceOnUse">
<stop stop-color="#FF9677"/>
<stop offset="0.2716" stop-color="#FE9073"/>
<stop offset="0.6302" stop-color="#F98067"/>
<stop offset="1" stop-color="#F36756"/>
</linearGradient>
<linearGradient id="paint4_linear" x1="327.618" y1="373.75" x2="308.168" y2="417.086" gradientUnits="userSpaceOnUse">
<stop stop-color="#FF8368"/>
<stop offset="1" stop-color="#FF9677"/>
</linearGradient>
</defs>
</svg>
